# File created by Blade
# Date/Time:  Mon Sep 22 16:09:39 2014
# Frame Rate: 120.000 fps
#------------------------------------------------------
:FULLY-SPECIFIED
:DEGREES
2612
root 2.584074 37.009078 2.867314 4.147062 -3.283115 1.398088
RightUpLeg 4.566460 -5.112044 -2.176763
RightLeg -4.929365 -0.000000 0.000000
RightFoot -13.564546 -16.205878 16.408422
RightToeBase 14.087800 -0.000000 -0.000000
LeftUpLeg 2.991253 1.569359 1.930274
LeftLeg -3.131685 -0.000000 0.000000
LeftFoot -9.974871 13.214567 -17.316620
LeftToeBase 9.837146 -0.000000 -0.000000
Spine -4.696530 -11.225966 0.827799
RightShoulder -8.783221 -23.624509 -0.561973
RightArm 20.469299 21.235162 93.072911
RightForeArm 109.905610 -0.000000 9.935799
RightHand 11.201217 -0.000000 -42.257839
RightHandThumb1 -24.326973 -0.000000 -32.862282
LeftShoulder -27.441769 39.928614 -3.761346
LeftArm 39.316293 11.733391 -72.353013
LeftForeArm 22.129896 -0.000000 22.613645
LeftHand -12.058098 -0.000000 -13.188859
LeftHandThumb1 -26.253704 0.000000 33.147579
Head 11.383108 4.493484 9.663241
2613
root 2.601282 37.010250 2.871846 4.159810 -3.375649 1.462189
RightUpLeg 4.555305 -5.132144 -2.271728
RightLeg -4.961409 -0.000000 0.000000
RightFoot -13.543112 -16.158985 16.359329
RightToeBase 14.143156 -0.000000 -0.000000
LeftUpLeg 2.964676 1.600213 1.832090
LeftLeg -3.080346 -0.000000 0.000000
LeftFoot -9.997850 13.254851 -17.356520
LeftToeBase 9.845010 -0.000000 -0.000000
Spine -4.715356 -11.102048 0.887119
RightShoulder -8.720332 -23.674651 -0.754090
RightArm 20.503237 21.682668 92.809352
RightForeArm 110.420870 -0.000000 10.406472
RightHand 11.891304 -0.000000 -42.273147
RightHandThumb1 -24.326973 -0.000000 -32.862282
LeftShoulder -27.433431 39.924872 -3.839274
LeftArm 39.348905 11.543143 -72.430533
LeftForeArm 22.095431 -0.000000 22.440004
LeftHand -12.185994 0.000000 -13.075954
LeftHandThumb1 -26.253704 0.000000 33.147579
Head 11.337242 4.451068 9.499230
2614
root 2.621237 37.010924 2.875566 4.173965 -3.478133 1.529872
RightUpLeg 4.546661 -5.149777 -2.374891
RightLeg -5.005274 -0.000000 0.000000
RightFoot -13.496724 -16.097657 16.309485
RightToeBase 14.154965 -0.000000 -0.000000
LeftUpLeg 2.927537 1.623845 1.725594
LeftLeg -3.004215 -0.000000 0.000000
LeftFoot -10.048603 13.297268 -17.387759
LeftToeBase 9.842286 -0.000000 -0.000000
Spine -4.724404 -10.971068 0.941527
RightShoulder -8.661673 -23.665503 -0.968957
RightArm 20.397641 21.703409 92.371941
RightForeArm 110.347234 -0.000000 10.766919
RightHand 12.012736 -0.000000 -41.871853
RightHandThumb1 -24.326973 -0.000000 -32.862282
LeftShoulder -27.395976 39.880980 -3.886375
LeftArm 39.276247 11.429195 -72.501877
LeftForeArm 21.872352 0.000000 22.365331
LeftHand -12.587971 -0.000000 -12.447683
LeftHandThumb1 -26.253704 0.000000 33.147579
Head 11.264994 4.403691 9.329024
2615
root 2.639763 37.011801 2.879511 4.179107 -3.594869 1.589219
RightUpLeg 4.538661 -5.110726 -2.466391
RightLeg -5.034336 -0.000000 0.000000
RightFoot -13.481069 -16.071803 16.277528
RightToeBase 14.199934 -0.000000 -0.000000
LeftUpLeg 2.904800 1.668951 1.629012
LeftLeg -2.933430 -0.000000 0.000000
LeftFoot -10.079082 13.336856 -17.412564
LeftToeBase 9.805856 -0.000000 -0.000000
Spine -4.714663 -10.820955 0.979188
RightShoulder -8.615058 -23.439269 -1.214161
RightArm 20.004109 21.508864 91.790316
RightForeArm 110.286226 -0.000000 11.126365
RightHand 12.111129 -0.000000 -40.721613
RightHandThumb1 -24.326973 -0.000000 -32.862282
LeftShoulder -27.389460 39.894848 -3.925561
LeftArm 39.314825 11.143529 -72.754088
LeftForeArm 21.715205 -0.000000 22.111441
LeftHand -12.724313 -0.000000 -12.195979
LeftHandThumb1 -26.253704 0.000000 33.147579
Head 11.194507 4.331050 9.218322
2616
root 2.657098 37.011073 2.884409 4.156377 -3.716814 1.662910
RightUpLeg 4.561801 -5.163317 -2.589008
RightLeg -5.057262 -0.000000 0.000000
RightFoot -13.445426 -15.887455 16.246076
RightToeBase 14.181706 -0.000000 -0.000000
LeftUpLeg 2.926819 1.733254 1.516114
LeftLeg -2.898931 -0.000000 0.000000
LeftFoot -10.121076 13.394789 -17.441092
LeftToeBase 9.873043 -0.000000 -0.000000
Spine -4.674030 -10.682909 0.999357
RightShoulder -8.587971 -23.296516 -1.429138
RightArm 19.778712 21.473616 91.341103
RightForeArm 110.318933 -0.000000 11.501815
RightHand 12.273734 -0.000000 -40.497229
RightHandThumb1 -24.326973 -0.000000 -32.862282
LeftShoulder -27.385488 39.894795 -3.971960
LeftArm 39.309891 10.949486 -72.911103
LeftForeArm 21.159026 -0.000000 21.936815
LeftHand -12.971144 -0.000000 -11.333382
LeftHandThumb1 -26.253704 0.000000 33.147579
Head 11.126577 4.281523 9.057962
2617
root 2.669606 37.011086 2.887584 4.157509 -3.830734 1.701612
RightUpLeg 4.559277 -5.186522 -2.657477
RightLeg -5.087637 -0.000000 0.000000
RightFoot -13.402200 -15.778901 16.207241
RightToeBase 14.211683 -0.000000 -0.000000
LeftUpLeg 2.934695 1.839166 1.443815
LeftLeg -2.888277 -0.000000 0.000000
LeftFoot -10.121480 13.422924 -17.435354
LeftToeBase 9.836151 -0.000000 -0.000000
Spine -4.663142 -10.583022 1.059722
RightShoulder -8.570146 -23.189186 -1.617998
RightArm 19.848523 22.286785 91.343497
RightForeArm 109.674646 -0.000000 11.737813
RightHand 12.538792 -0.000000 -40.210937
RightHandThumb1 -24.326973 -0.000000 -32.862282
LeftShoulder -27.435940 39.913614 -4.074649
LeftArm 39.290667 10.691508 -73.067903
LeftForeArm 20.362861 -0.000000 21.848215
LeftHand -13.201412 -0.000000 -10.757590
LeftHandThumb1 -26.253704 0.000000 33.147579
Head 11.073750 4.281708 8.894902
2618
root 2.684788 37.011358 2.891313 4.150835 -3.956096 1.747403
RightUpLeg 4.561662 -5.151690 -2.734872
RightLeg -5.118291 -0.000000 0.000000
RightFoot -13.371941 -15.731509 16.161620
RightToeBase 14.244675 -0.000000 -0.000000
LeftUpLeg 2.942550 1.933640 1.364361
LeftLeg -2.855851 -0.000000 0.000000
LeftFoot -10.142743 13.451113 -17.450223
LeftToeBase 9.792105 -0.000000 -0.000000
Spine -4.640387 -10.510248 1.110560
RightShoulder -8.480244 -23.032386 -1.850880
RightArm 19.791470 22.895207 91.247773
RightForeArm 109.152343 -0.000000 12.018728
RightHand 12.705092 -0.000000 -39.767217
RightHandThumb1 -24.326973 -0.000000 -32.862282
LeftShoulder -27.536635 39.916003 -4.188375
LeftArm 39.278183 10.443376 -73.280247
LeftForeArm 19.653423 -0.000000 21.714224
LeftHand -13.440447 -0.000000 -9.842729
LeftHandThumb1 -26.253704 0.000000 33.147579
Head 11.024429 4.309104 8.739476
2619
root 2.698408 37.012004 2.895152 4.149167 -4.060328 1.776634
RightUpLeg 4.563347 -5.109900 -2.793183
RightLeg -5.149974 -0.000000 0.000000
RightFoot -13.342626 -15.701869 16.164312
RightToeBase 14.271444 -0.000000 -0.000000
LeftUpLeg 2.948610 1.993843 1.304303
LeftLeg -2.834545 -0.000000 0.000000
LeftFoot -10.147097 13.501518 -17.409712
LeftToeBase 9.751526 -0.000000 -0.000000
Spine -4.627790 -10.419675 1.179845
RightShoulder -8.422819 -22.794300 -2.054199
RightArm 19.556139 23.388775 91.028065
RightForeArm 108.914876 -0.000000 12.503665
RightHand 12.977102 -0.000000 -39.748946
RightHandThumb1 -24.326973 -0.000000 -32.862282
LeftShoulder -27.592977 39.921714 -4.287236
LeftArm 39.244716 10.221129 -73.465534
LeftForeArm 19.101719 -0.000000 21.615464
LeftHand -13.502457 -0.000000 -9.357973
LeftHandThumb1 -26.253704 0.000000 33.147579
Head 10.986926 4.281566 8.592063
2620
root 2.711019 37.012211 2.899035 4.147741 -4.171748 1.803196
RightUpLeg 4.563907 -5.036435 -2.848068
RightLeg -5.180228 -0.000000 0.000000
RightFoot -13.319063 -15.674630 16.178084
RightToeBase 14.278501 -0.000000 -0.000000
LeftUpLeg 2.957901 2.073265 1.244562
LeftLeg -2.816660 -0.000000 0.000000
LeftFoot -10.183842 13.546576 -17.428534
LeftToeBase 9.769366 -0.000000 -0.000000
Spine -4.606839 -10.311716 1.228099
RightShoulder -8.368604 -22.564551 -2.213319
RightArm 19.305041 23.935679 90.846017
RightForeArm 108.721772 -0.000000 13.102605
RightHand 13.331695 -0.000000 -39.049103
RightHandThumb1 -24.326973 -0.000000 -32.862282
LeftShoulder -27.655759 39.931225 -4.372538
LeftArm 39.213668 10.005158 -73.660895
LeftForeArm 18.543257 -0.000000 21.564974
LeftHand -13.689337 -0.000000 -8.439698
LeftHandThumb1 -26.253704 0.000000 33.147579
Head 10.933211 4.245559 8.500750
2621
root 2.721352 37.012748 2.903042 4.145422 -4.267282 1.822756
RightUpLeg 4.564132 -4.983421 -2.890907
RightLeg -5.203925 -0.000000 0.000000
RightFoot -13.280605 -15.658752 16.148505
RightToeBase 14.238763 -0.000000 -0.000000
LeftUpLeg 2.969377 2.163420 1.199979
LeftLeg -2.803742 -0.000000 0.000000
LeftFoot -10.202577 13.553547 -17.433343
LeftToeBase 9.842045 -0.000000 -0.000000
Spine -4.590221 -10.219118 1.283255
RightShoulder -8.327023 -22.456314 -2.357765
RightArm 19.105554 24.446127 90.744284
RightForeArm 108.607798 -0.000000 13.902156
RightHand 13.729111 -0.000000 -37.752512
RightHandThumb1 -24.326973 -0.000000 -32.862282
LeftShoulder -27.717650 39.956673 -4.462071
LeftArm 39.200141 9.806916 -73.831633
LeftForeArm 17.822521 0.000000 21.520953
LeftHand -13.796774 -0.000000 -7.792608
LeftHandThumb1 -26.253704 0.000000 33.147579
Head 10.897564 4.201485 8.390650
2622
root 2.729402 37.013027 2.905847 4.150578 -4.346894 1.839700
RightUpLeg 4.561960 -4.919240 -2.928024
RightLeg -5.229678 -0.000000 0.000000
RightFoot -13.256437 -15.646543 16.125393
RightToeBase 14.266114 -0.000000 -0.000000
LeftUpLeg 2.969229 2.253616 1.155617
LeftLeg -2.793436 -0.000000 0.000000
LeftFoot -10.203826 13.589589 -17.389559
LeftToeBase 9.830142 -0.000000 -0.000000
Spine -4.574778 -10.140183 1.322527
RightShoulder -8.286782 -22.336275 -2.415856
RightArm 18.873116 24.845801 90.527548
RightForeArm 108.417693 -0.000000 14.759039
RightHand 14.243410 -0.000000 -38.178661
RightHandThumb1 -24.326973 -0.000000 -32.862282
LeftShoulder -27.743140 39.936341 -4.508283
LeftArm 39.099800 9.619261 -73.992292
LeftForeArm 17.339376 -0.000000 21.580195
LeftHand -13.965900 -0.000000 -7.146955
LeftHandThumb1 -26.253704 0.000000 33.147579
Head 10.849941 4.121804 8.316635
2623
root 2.735542 37.013727 2.907475 4.157663 -4.409280 1.849891
RightUpLeg 4.555980 -4.859332 -2.953877
RightLeg -5.252158 -0.000000 0.000000
RightFoot -13.223937 -15.643820 16.132491
RightToeBase 14.213596 -0.000000 -0.000000
LeftUpLeg 2.960438 2.330491 1.133627
LeftLeg -2.772285 -0.000000 0.000000
LeftFoot -10.212381 13.560393 -17.433619
LeftToeBase 9.801262 -0.000000 -0.000000
Spine -4.554276 -10.085905 1.357285
RightShoulder -8.251120 -22.250805 -2.428767
RightArm 18.673045 25.297676 90.369759
RightForeArm 108.250587 -0.000000 15.689825
RightHand 14.720571 -0.000000 -38.752453
RightHandThumb1 -24.326973 -0.000000 -32.862282
LeftShoulder -27.802818 39.945211 -4.583356
LeftArm 39.049961 9.434455 -74.130930
LeftForeArm 16.905723 0.000000 21.643709
LeftHand -14.045955 -0.000000 -6.635295
LeftHandThumb1 -26.253704 0.000000 33.147579
Head 10.807190 4.039403 8.285449
2624
root 2.739846 37.014039 2.908477 4.166069 -4.462904 1.861126
RightUpLeg 4.543552 -4.805908 -2.978027
RightLeg -5.260424 -0.000000 0.000000
RightFoot -13.227323 -15.620786 16.171456
RightToeBase 14.294282 -0.000000 -0.000000
LeftUpLeg 2.950672 2.410642 1.111197
LeftLeg -2.758216 -0.000000 0.000000
LeftFoot -10.209844 13.542045 -17.420133
LeftToeBase 9.814039 -0.000000 -0.000000
Spine -4.529952 -10.057890 1.370472
RightShoulder -8.210254 -22.137697 -2.403374
RightArm 18.436587 25.895770 90.286947
RightForeArm 108.102457 -0.000000 16.794256
RightHand 15.210071 -0.000000 -38.591783
RightHandThumb1 -24.326973 -0.000000 -32.862282
LeftShoulder -27.872955 39.979389 -4.644468
LeftArm 39.036596 9.240225 -74.302911
LeftForeArm 16.567470 -0.000000 21.672587
LeftHand -13.985546 -0.000000 -6.350479
LeftHandThumb1 -26.253704 0.000000 33.147579
Head 10.755686 3.957359 8.302455
